<svg id="Layer_1" data-name="Layer 1" xmlns="http://www.w3.org/2000/svg" viewBox="0 0 768.88 201.58"><defs><style>.cls-1{fill:#3fddfe;}.cls-2{fill:#4d7ffd;}.cls-3{fill:#240065;}</style></defs><title>logo BizFly Cloud</title><polygon class="cls-1" points="380.25 69.24 411.57 77.33 500 0 380.25 69.24"/><polygon class="cls-1" points="426.82 81.27 462.3 90.43 500 0 426.82 81.27"/><polygon class="cls-2" points="411.57 77.33 426.82 103.07 439.9 84.65 426.82 81.27 500 0 411.57 77.33"/><polygon class="cls-3" points="426.82 81.27 426.82 103.07 439.9 84.64 426.82 81.27"/><path class="cls-3" d="M0,163.82V72.75A3.53,3.53,0,0,1,3.74,69H48.45c23.18,0,34.69,12.56,34.69,27.37,0,9.27-4.78,17.35-15.4,21.38,10.62,3.44,19.14,12.41,19.14,22.43,0,15-11.36,27.52-34.69,27.52H3.74A3.57,3.57,0,0,1,0,163.82m60.41-65c0-4.49-2.84-8.82-11.07-8.82H23.18v18.24l25.72.15c7.48,0,11.51-4.93,11.51-9.57m-9.72,48c10.47,0,13-5.68,13-9.87,0-4.78-3.74-9-10-9H23.18v18.84Z"/><path class="cls-3" d="M99.89,163.82V101a3.57,3.57,0,0,1,3.74-3.89h15a3.57,3.57,0,0,1,3.74,3.89v62.81a3.57,3.57,0,0,1-3.74,3.89h-15a3.57,3.57,0,0,1-3.74-3.89"/><path class="cls-3" d="M135.78,163.67v-6.58a9.46,9.46,0,0,1,.45-3.44c4.34-11.21,16.45-26.77,26.17-36.49H139.82a3.85,3.85,0,0,1-4-4v-12a3.85,3.85,0,0,1,4-4h49a3.77,3.77,0,0,1,4,4l-.15,7.18a5.47,5.47,0,0,1-1.35,4.19c-10.47,10.77-25,27.52-28.26,36.19h26.47a3.85,3.85,0,0,1,4,4v10.92a3.85,3.85,0,0,1-4,4h-50.1c-2.39,0-3.74-1.64-3.74-4"/><path class="cls-3" d="M282,72.75V86.06A3.57,3.57,0,0,1,278.3,90H253c-16.6,0-23.33,5.38-23.63,24.37h37.39a3.69,3.69,0,0,1,3.89,3.89v13.31a3.77,3.77,0,0,1-3.89,3.89H229.4v28.41a3.57,3.57,0,0,1-3.74,3.89H210a3.57,3.57,0,0,1-3.74-3.89V111.34c0-28.26,15.55-42.32,43.07-42.32h29A3.53,3.53,0,0,1,282,72.75"/><path class="cls-3" d="M291.61,163.82V66.77A3.53,3.53,0,0,1,295.35,63h14.51a3.53,3.53,0,0,1,3.74,3.74v97.05a3.57,3.57,0,0,1-3.74,3.89H295.35a3.57,3.57,0,0,1-3.74-3.89"/><path class="cls-3" d="M340.66,194.78c-1.94-.75-2.39-2.69-1.5-4.64l4.19-9.87c.75-2.24,3-3,5.23-1.94,5.38,2.39,8.82,3.14,12.56,3.14,12.56,0,18.1-8.08,16.45-20.19-3.74,4.49-10.32,7.93-18.69,7.93-15.55,0-31.25-10.32-31.25-35.89V101a3.57,3.57,0,0,1,3.74-3.89h14.8a3.57,3.57,0,0,1,3.74,3.89v33c0,10.32,4.49,16.15,13.16,16.15,6.43,0,12.41-3.14,14.8-10V101a3.61,3.61,0,0,1,3.89-3.89H396a3.57,3.57,0,0,1,3.74,3.89v60.26c0,29.31-14.06,39.18-35.44,39.18-9.87,0-16.75-1.79-23.63-5.68"/><path class="cls-1" d="M120.83,78.74A9.72,9.72,0,1,1,111.11,69a9.72,9.72,0,0,1,9.72,9.72"/><path class="cls-1" d="M476.35,97.3a35.72,35.72,0,0,1,7.43.79,40.25,40.25,0,0,1,7.23,2.26,38.3,38.3,0,0,1,6.64,3.59,34.77,34.77,0,0,1,5.67,4.77l-9,11a26.6,26.6,0,0,0-8.26-6.54,20.72,20.72,0,0,0-17.73-.79,20.15,20.15,0,0,0-6.6,4.47,21.24,21.24,0,0,0-6,15,21.69,21.69,0,0,0,1.61,8.41,21.09,21.09,0,0,0,4.4,6.73,20.1,20.1,0,0,0,6.6,4.47,20.73,20.73,0,0,0,8.21,1.62,22.21,22.21,0,0,0,9.38-2.16,28.69,28.69,0,0,0,8.4-5.9l9.09,9.93a42.19,42.19,0,0,1-12.8,8.95,35.48,35.48,0,0,1-14.85,3.34,37.12,37.12,0,0,1-14.22-2.7,34.84,34.84,0,0,1-11.38-7.42A34.31,34.31,0,0,1,442.64,146a35.19,35.19,0,0,1-2.73-13.91,33.82,33.82,0,0,1,10.45-24.82A35.64,35.64,0,0,1,461.88,100a38.64,38.64,0,0,1,14.46-2.65"/><polygon class="cls-1" points="553.44 153.04 553.44 166.6 508.69 166.6 508.69 97.79 524.12 97.79 524.12 153.04 553.44 153.04"/><path class="cls-1" d="M590.56,97.3A39.38,39.38,0,0,1,605.12,100a36,36,0,0,1,11.68,7.32,33.47,33.47,0,0,1,7.72,11.06,34.69,34.69,0,0,1-7.72,38.83,36.18,36.18,0,0,1-11.68,7.42,38.72,38.72,0,0,1-14.56,2.7A39.4,39.4,0,0,1,576,164.64a35.5,35.5,0,0,1-11.68-7.37,33.85,33.85,0,0,1-7.72-11.16,36.12,36.12,0,0,1,0-27.82,32.8,32.8,0,0,1,7.72-11.06A36.35,36.35,0,0,1,576,100a39.38,39.38,0,0,1,14.56-2.65m.2,13.56a21,21,0,0,0-14.9,6.14,21.52,21.52,0,0,0-4.54,6.78,21.93,21.93,0,0,0,0,16.86,22,22,0,0,0,4.59,6.83,21.54,21.54,0,0,0,6.69,4.57,20,20,0,0,0,8.11,1.67,19.62,19.62,0,0,0,8.06-1.67,21,21,0,0,0,11-11.4,22,22,0,0,0,1.61-8.45,21.71,21.71,0,0,0-1.61-8.4,21.31,21.31,0,0,0-4.45-6.78,20.49,20.49,0,0,0-6.59-4.52,20.15,20.15,0,0,0-8.06-1.62"/><path class="cls-1" d="M694,137.8A33.18,33.18,0,0,1,691.89,150a26,26,0,0,1-6.11,9.29,26.72,26.72,0,0,1-9.67,5.9,40.7,40.7,0,0,1-25.6,0,27.69,27.69,0,0,1-9.77-5.9,26,26,0,0,1-6.25-9.29,32.48,32.48,0,0,1-2.2-12.24v-40h15.44v40q0,7.47,4.35,11.7a15.5,15.5,0,0,0,11.29,4.23q6.94,0,11.09-4.23t4.15-11.7v-40H694Z"/><path class="cls-1" d="M732.92,97.79a40.94,40.94,0,0,1,14.56,2.51,32.86,32.86,0,0,1,11.38,7.08,32.22,32.22,0,0,1,7.38,10.86,35.77,35.77,0,0,1,2.64,14,35.29,35.29,0,0,1-2.69,13.91A32,32,0,0,1,758.67,157a33.83,33.83,0,0,1-11.53,7.08,41.91,41.91,0,0,1-14.8,2.51H703.9V97.79Zm-13.58,55.73h14a20.19,20.19,0,0,0,7.91-1.52,18.16,18.16,0,0,0,6.25-4.33,20.41,20.41,0,0,0,4.15-6.73,23.89,23.89,0,0,0,1.52-8.65,23.63,23.63,0,0,0-1.56-8.7,20.1,20.1,0,0,0-4.3-6.78,19.47,19.47,0,0,0-6.5-4.37,21,21,0,0,0-8.16-1.57H719.34Z"/></svg>